<?xml version="1.0" encoding="utf-8" standalone="no"?>
<!DOCTYPE svg PUBLIC "-//W3C//DTD SVG 1.1//EN"
  "http://www.w3.org/Graphics/SVG/1.1/DTD/svg11.dtd">
<svg xmlns:xlink="http://www.w3.org/1999/xlink" width="460.8pt" height="345.6pt" viewBox="0 0 460.8 345.6" xmlns="http://www.w3.org/2000/svg" version="1.1">
 <metadata>
  <rdf:RDF xmlns:dc="http://purl.org/dc/elements/1.1/" xmlns:cc="http://creativecommons.org/ns#" xmlns:rdf="http://www.w3.org/1999/02/22-rdf-syntax-ns#">
   <cc:Work>
    <dc:type rdf:resource="http://purl.org/dc/dcmitype/StillImage"/>
    <dc:date>2023-01-23T00:38:13.339517</dc:date>
    <dc:format>image/svg+xml</dc:format>
    <dc:creator>
     <cc:Agent>
      <dc:title>Matplotlib v3.6.3, https://matplotlib.org/</dc:title>
     </cc:Agent>
    </dc:creator>
   </cc:Work>
  </rdf:RDF>
 </metadata>
 <defs>
  <style type="text/css">*{stroke-linejoin: round; stroke-linecap: butt}</style>
 </defs>
 <g id="figure_1">
  <g id="patch_1">
   <path d="M 0 345.6 
L 460.8 345.6 
L 460.8 0 
L 0 0 
z
" style="fill: #ffffff"/>
  </g>
  <g id="axes_1">
   <g id="patch_2">
    <path d="M 57.6 307.584 
L 414.72 307.584 
L 414.72 41.472 
L 57.6 41.472 
z
" style="fill: #ffffff"/>
   </g>
   <g id="matplotlib.axis_1">
    <g id="xtick_1">
     <g id="line2d_1">
      <defs>
       <path id="md617bf48a4" d="M 0 0 
L 0 3.5 
" style="stroke: #000000; stroke-width: 0.8"/>
      </defs>
      <g>
       <use xlink:href="#md617bf48a4" x="73.832727" y="307.584" style="stroke: #000000; stroke-width: 0.8"/>
      </g>
     </g>
     <g id="text_1">
      <!-- 0.00 -->
      <g transform="translate(62.699915 322.182437) scale(0.1 -0.1)">
       <defs>
        <path id="DejaVuSans-30" d="M 2034 4250 
Q 1547 4250 1301 3770 
Q 1056 3291 1056 2328 
Q 1056 1369 1301 889 
Q 1547 409 2034 409 
Q 2525 409 2770 889 
Q 3016 1369 3016 2328 
Q 3016 3291 2770 3770 
Q 2525 4250 2034 4250 
z
M 2034 4750 
Q 2819 4750 3233 4129 
Q 3647 3509 3647 2328 
Q 3647 1150 3233 529 
Q 2819 -91 2034 -91 
Q 1250 -91 836 529 
Q 422 1150 422 2328 
Q 422 3509 836 4129 
Q 1250 4750 2034 4750 
z
" transform="scale(0.015625)"/>
        <path id="DejaVuSans-2e" d="M 684 794 
L 1344 794 
L 1344 0 
L 684 0 
L 684 794 
z
" transform="scale(0.015625)"/>
       </defs>
       <use xlink:href="#DejaVuSans-30"/>
       <use xlink:href="#DejaVuSans-2e" x="63.623047"/>
       <use xlink:href="#DejaVuSans-30" x="95.410156"/>
       <use xlink:href="#DejaVuSans-30" x="159.033203"/>
      </g>
     </g>
    </g>
    <g id="xtick_2">
     <g id="line2d_2">
      <g>
       <use xlink:href="#md617bf48a4" x="114.414545" y="307.584" style="stroke: #000000; stroke-width: 0.8"/>
      </g>
     </g>
     <g id="text_2">
      <!-- 0.05 -->
      <g transform="translate(103.281733 322.182437) scale(0.1 -0.1)">
       <defs>
        <path id="DejaVuSans-35" d="M 691 4666 
L 3169 4666 
L 3169 4134 
L 1269 4134 
L 1269 2991 
Q 1406 3038 1543 3061 
Q 1681 3084 1819 3084 
Q 2600 3084 3056 2656 
Q 3513 2228 3513 1497 
Q 3513 744 3044 326 
Q 2575 -91 1722 -91 
Q 1428 -91 1123 -41 
Q 819 9 494 109 
L 494 744 
Q 775 591 1075 516 
Q 1375 441 1709 441 
Q 2250 441 2565 725 
Q 2881 1009 2881 1497 
Q 2881 1984 2565 2268 
Q 2250 2553 1709 2553 
Q 1456 2553 1204 2497 
Q 953 2441 691 2322 
L 691 4666 
z
" transform="scale(0.015625)"/>
       </defs>
       <use xlink:href="#DejaVuSans-30"/>
       <use xlink:href="#DejaVuSans-2e" x="63.623047"/>
       <use xlink:href="#DejaVuSans-30" x="95.410156"/>
       <use xlink:href="#DejaVuSans-35" x="159.033203"/>
      </g>
     </g>
    </g>
    <g id="xtick_3">
     <g id="line2d_3">
      <g>
       <use xlink:href="#md617bf48a4" x="154.996364" y="307.584" style="stroke: #000000; stroke-width: 0.8"/>
      </g>
     </g>
     <g id="text_3">
      <!-- 0.10 -->
      <g transform="translate(143.863551 322.182437) scale(0.1 -0.1)">
       <defs>
        <path id="DejaVuSans-31" d="M 794 531 
L 1825 531 
L 1825 4091 
L 703 3866 
L 703 4441 
L 1819 4666 
L 2450 4666 
L 2450 531 
L 3481 531 
L 3481 0 
L 794 0 
L 794 531 
z
" transform="scale(0.015625)"/>
       </defs>
       <use xlink:href="#DejaVuSans-30"/>
       <use xlink:href="#DejaVuSans-2e" x="63.623047"/>
       <use xlink:href="#DejaVuSans-31" x="95.410156"/>
       <use xlink:href="#DejaVuSans-30" x="159.033203"/>
      </g>
     </g>
    </g>
    <g id="xtick_4">
     <g id="line2d_4">
      <g>
       <use xlink:href="#md617bf48a4" x="195.578182" y="307.584" style="stroke: #000000; stroke-width: 0.8"/>
      </g>
     </g>
     <g id="text_4">
      <!-- 0.15 -->
      <g transform="translate(184.445369 322.182437) scale(0.1 -0.1)">
       <use xlink:href="#DejaVuSans-30"/>
       <use xlink:href="#DejaVuSans-2e" x="63.623047"/>
       <use xlink:href="#DejaVuSans-31" x="95.410156"/>
       <use xlink:href="#DejaVuSans-35" x="159.033203"/>
      </g>
     </g>
    </g>
    <g id="xtick_5">
     <g id="line2d_5">
      <g>
       <use xlink:href="#md617bf48a4" x="236.16" y="307.584" style="stroke: #000000; stroke-width: 0.8"/>
      </g>
     </g>
     <g id="text_5">
      <!-- 0.20 -->
      <g transform="translate(225.027187 322.182437) scale(0.1 -0.1)">
       <defs>
        <path id="DejaVuSans-32" d="M 1228 531 
L 3431 531 
L 3431 0 
L 469 0 
L 469 531 
Q 828 903 1448 1529 
Q 2069 2156 2228 2338 
Q 2531 2678 2651 2914 
Q 2772 3150 2772 3378 
Q 2772 3750 2511 3984 
Q 2250 4219 1831 4219 
Q 1534 4219 1204 4116 
Q 875 4013 500 3803 
L 500 4441 
Q 881 4594 1212 4672 
Q 1544 4750 1819 4750 
Q 2544 4750 2975 4387 
Q 3406 4025 3406 3419 
Q 3406 3131 3298 2873 
Q 3191 2616 2906 2266 
Q 2828 2175 2409 1742 
Q 1991 1309 1228 531 
z
" transform="scale(0.015625)"/>
       </defs>
       <use xlink:href="#DejaVuSans-30"/>
       <use xlink:href="#DejaVuSans-2e" x="63.623047"/>
       <use xlink:href="#DejaVuSans-32" x="95.410156"/>
       <use xlink:href="#DejaVuSans-30" x="159.033203"/>
      </g>
     </g>
    </g>
    <g id="xtick_6">
     <g id="line2d_6">
      <g>
       <use xlink:href="#md617bf48a4" x="276.741818" y="307.584" style="stroke: #000000; stroke-width: 0.8"/>
      </g>
     </g>
     <g id="text_6">
      <!-- 0.25 -->
      <g transform="translate(265.609006 322.182437) scale(0.1 -0.1)">
       <use xlink:href="#DejaVuSans-30"/>
       <use xlink:href="#DejaVuSans-2e" x="63.623047"/>
       <use xlink:href="#DejaVuSans-32" x="95.410156"/>
       <use xlink:href="#DejaVuSans-35" x="159.033203"/>
      </g>
     </g>
    </g>
    <g id="xtick_7">
     <g id="line2d_7">
      <g>
       <use xlink:href="#md617bf48a4" x="317.323636" y="307.584" style="stroke: #000000; stroke-width: 0.8"/>
      </g>
     </g>
     <g id="text_7">
      <!-- 0.30 -->
      <g transform="translate(306.190824 322.182437) scale(0.1 -0.1)">
       <defs>
        <path id="DejaVuSans-33" d="M 2597 2516 
Q 3050 2419 3304 2112 
Q 3559 1806 3559 1356 
Q 3559 666 3084 287 
Q 2609 -91 1734 -91 
Q 1441 -91 1130 -33 
Q 819 25 488 141 
L 488 750 
Q 750 597 1062 519 
Q 1375 441 1716 441 
Q 2309 441 2620 675 
Q 2931 909 2931 1356 
Q 2931 1769 2642 2001 
Q 2353 2234 1838 2234 
L 1294 2234 
L 1294 2753 
L 1863 2753 
Q 2328 2753 2575 2939 
Q 2822 3125 2822 3475 
Q 2822 3834 2567 4026 
Q 2313 4219 1838 4219 
Q 1578 4219 1281 4162 
Q 984 4106 628 3988 
L 628 4550 
Q 988 4650 1302 4700 
Q 1616 4750 1894 4750 
Q 2613 4750 3031 4423 
Q 3450 4097 3450 3541 
Q 3450 3153 3228 2886 
Q 3006 2619 2597 2516 
z
" transform="scale(0.015625)"/>
       </defs>
       <use xlink:href="#DejaVuSans-30"/>
       <use xlink:href="#DejaVuSans-2e" x="63.623047"/>
       <use xlink:href="#DejaVuSans-33" x="95.410156"/>
       <use xlink:href="#DejaVuSans-30" x="159.033203"/>
      </g>
     </g>
    </g>
    <g id="xtick_8">
     <g id="line2d_8">
      <g>
       <use xlink:href="#md617bf48a4" x="357.905455" y="307.584" style="stroke: #000000; stroke-width: 0.8"/>
      </g>
     </g>
     <g id="text_8">
      <!-- 0.35 -->
      <g transform="translate(346.772642 322.182437) scale(0.1 -0.1)">
       <use xlink:href="#DejaVuSans-30"/>
       <use xlink:href="#DejaVuSans-2e" x="63.623047"/>
       <use xlink:href="#DejaVuSans-33" x="95.410156"/>
       <use xlink:href="#DejaVuSans-35" x="159.033203"/>
      </g>
     </g>
    </g>
    <g id="xtick_9">
     <g id="line2d_9">
      <g>
       <use xlink:href="#md617bf48a4" x="398.487273" y="307.584" style="stroke: #000000; stroke-width: 0.8"/>
      </g>
     </g>
     <g id="text_9">
      <!-- 0.40 -->
      <g transform="translate(387.35446 322.182437) scale(0.1 -0.1)">
       <defs>
        <path id="DejaVuSans-34" d="M 2419 4116 
L 825 1625 
L 2419 1625 
L 2419 4116 
z
M 2253 4666 
L 3047 4666 
L 3047 1625 
L 3713 1625 
L 3713 1100 
L 3047 1100 
L 3047 0 
L 2419 0 
L 2419 1100 
L 313 1100 
L 313 1709 
L 2253 4666 
z
" transform="scale(0.015625)"/>
       </defs>
       <use xlink:href="#DejaVuSans-30"/>
       <use xlink:href="#DejaVuSans-2e" x="63.623047"/>
       <use xlink:href="#DejaVuSans-34" x="95.410156"/>
       <use xlink:href="#DejaVuSans-30" x="159.033203"/>
      </g>
     </g>
    </g>
   </g>
   <g id="matplotlib.axis_2">
    <g id="ytick_1">
     <g id="line2d_10">
      <defs>
       <path id="mc5f73f1962" d="M 0 0 
L -3.5 0 
" style="stroke: #000000; stroke-width: 0.8"/>
      </defs>
      <g>
       <use xlink:href="#mc5f73f1962" x="57.6" y="296.276747" style="stroke: #000000; stroke-width: 0.8"/>
      </g>
     </g>
     <g id="text_10">
      <!-- 0.00000 -->
      <g transform="translate(9.246875 300.075966) scale(0.1 -0.1)">
       <use xlink:href="#DejaVuSans-30"/>
       <use xlink:href="#DejaVuSans-2e" x="63.623047"/>
       <use xlink:href="#DejaVuSans-30" x="95.410156"/>
       <use xlink:href="#DejaVuSans-30" x="159.033203"/>
       <use xlink:href="#DejaVuSans-30" x="222.65625"/>
       <use xlink:href="#DejaVuSans-30" x="286.279297"/>
       <use xlink:href="#DejaVuSans-30" x="349.902344"/>
      </g>
     </g>
    </g>
    <g id="ytick_2">
     <g id="line2d_11">
      <g>
       <use xlink:href="#mc5f73f1962" x="57.6" y="251.205485" style="stroke: #000000; stroke-width: 0.8"/>
      </g>
     </g>
     <g id="text_11">
      <!-- 0.00002 -->
      <g transform="translate(9.246875 255.004704) scale(0.1 -0.1)">
       <use xlink:href="#DejaVuSans-30"/>
       <use xlink:href="#DejaVuSans-2e" x="63.623047"/>
       <use xlink:href="#DejaVuSans-30" x="95.410156"/>
       <use xlink:href="#DejaVuSans-30" x="159.033203"/>
       <use xlink:href="#DejaVuSans-30" x="222.65625"/>
       <use xlink:href="#DejaVuSans-30" x="286.279297"/>
       <use xlink:href="#DejaVuSans-32" x="349.902344"/>
      </g>
     </g>
    </g>
    <g id="ytick_3">
     <g id="line2d_12">
      <g>
       <use xlink:href="#mc5f73f1962" x="57.6" y="206.134223" style="stroke: #000000; stroke-width: 0.8"/>
      </g>
     </g>
     <g id="text_12">
      <!-- 0.00004 -->
      <g transform="translate(9.246875 209.933441) scale(0.1 -0.1)">
       <use xlink:href="#DejaVuSans-30"/>
       <use xlink:href="#DejaVuSans-2e" x="63.623047"/>
       <use xlink:href="#DejaVuSans-30" x="95.410156"/>
       <use xlink:href="#DejaVuSans-30" x="159.033203"/>
       <use xlink:href="#DejaVuSans-30" x="222.65625"/>
       <use xlink:href="#DejaVuSans-30" x="286.279297"/>
       <use xlink:href="#DejaVuSans-34" x="349.902344"/>
      </g>
     </g>
    </g>
    <g id="ytick_4">
     <g id="line2d_13">
      <g>
       <use xlink:href="#mc5f73f1962" x="57.6" y="161.06296" style="stroke: #000000; stroke-width: 0.8"/>
      </g>
     </g>
     <g id="text_13">
      <!-- 0.00006 -->
      <g transform="translate(9.246875 164.862179) scale(0.1 -0.1)">
       <defs>
        <path id="DejaVuSans-36" d="M 2113 2584 
Q 1688 2584 1439 2293 
Q 1191 2003 1191 1497 
Q 1191 994 1439 701 
Q 1688 409 2113 409 
Q 2538 409 2786 701 
Q 3034 994 3034 1497 
Q 3034 2003 2786 2293 
Q 2538 2584 2113 2584 
z
M 3366 4563 
L 3366 3988 
Q 3128 4100 2886 4159 
Q 2644 4219 2406 4219 
Q 1781 4219 1451 3797 
Q 1122 3375 1075 2522 
Q 1259 2794 1537 2939 
Q 1816 3084 2150 3084 
Q 2853 3084 3261 2657 
Q 3669 2231 3669 1497 
Q 3669 778 3244 343 
Q 2819 -91 2113 -91 
Q 1303 -91 875 529 
Q 447 1150 447 2328 
Q 447 3434 972 4092 
Q 1497 4750 2381 4750 
Q 2619 4750 2861 4703 
Q 3103 4656 3366 4563 
z
" transform="scale(0.015625)"/>
       </defs>
       <use xlink:href="#DejaVuSans-30"/>
       <use xlink:href="#DejaVuSans-2e" x="63.623047"/>
       <use xlink:href="#DejaVuSans-30" x="95.410156"/>
       <use xlink:href="#DejaVuSans-30" x="159.033203"/>
       <use xlink:href="#DejaVuSans-30" x="222.65625"/>
       <use xlink:href="#DejaVuSans-30" x="286.279297"/>
       <use xlink:href="#DejaVuSans-36" x="349.902344"/>
      </g>
     </g>
    </g>
    <g id="ytick_5">
     <g id="line2d_14">
      <g>
       <use xlink:href="#mc5f73f1962" x="57.6" y="115.991698" style="stroke: #000000; stroke-width: 0.8"/>
      </g>
     </g>
     <g id="text_14">
      <!-- 0.00008 -->
      <g transform="translate(9.246875 119.790917) scale(0.1 -0.1)">
       <defs>
        <path id="DejaVuSans-38" d="M 2034 2216 
Q 1584 2216 1326 1975 
Q 1069 1734 1069 1313 
Q 1069 891 1326 650 
Q 1584 409 2034 409 
Q 2484 409 2743 651 
Q 3003 894 3003 1313 
Q 3003 1734 2745 1975 
Q 2488 2216 2034 2216 
z
M 1403 2484 
Q 997 2584 770 2862 
Q 544 3141 544 3541 
Q 544 4100 942 4425 
Q 1341 4750 2034 4750 
Q 2731 4750 3128 4425 
Q 3525 4100 3525 3541 
Q 3525 3141 3298 2862 
Q 3072 2584 2669 2484 
Q 3125 2378 3379 2068 
Q 3634 1759 3634 1313 
Q 3634 634 3220 271 
Q 2806 -91 2034 -91 
Q 1263 -91 848 271 
Q 434 634 434 1313 
Q 434 1759 690 2068 
Q 947 2378 1403 2484 
z
M 1172 3481 
Q 1172 3119 1398 2916 
Q 1625 2713 2034 2713 
Q 2441 2713 2670 2916 
Q 2900 3119 2900 3481 
Q 2900 3844 2670 4047 
Q 2441 4250 2034 4250 
Q 1625 4250 1398 4047 
Q 1172 3844 1172 3481 
z
" transform="scale(0.015625)"/>
       </defs>
       <use xlink:href="#DejaVuSans-30"/>
       <use xlink:href="#DejaVuSans-2e" x="63.623047"/>
       <use xlink:href="#DejaVuSans-30" x="95.410156"/>
       <use xlink:href="#DejaVuSans-30" x="159.033203"/>
       <use xlink:href="#DejaVuSans-30" x="222.65625"/>
       <use xlink:href="#DejaVuSans-30" x="286.279297"/>
       <use xlink:href="#DejaVuSans-38" x="349.902344"/>
      </g>
     </g>
    </g>
    <g id="ytick_6">
     <g id="line2d_15">
      <g>
       <use xlink:href="#mc5f73f1962" x="57.6" y="70.920436" style="stroke: #000000; stroke-width: 0.8"/>
      </g>
     </g>
     <g id="text_15">
      <!-- 0.00010 -->
      <g transform="translate(9.246875 74.719655) scale(0.1 -0.1)">
       <use xlink:href="#DejaVuSans-30"/>
       <use xlink:href="#DejaVuSans-2e" x="63.623047"/>
       <use xlink:href="#DejaVuSans-30" x="95.410156"/>
       <use xlink:href="#DejaVuSans-30" x="159.033203"/>
       <use xlink:href="#DejaVuSans-30" x="222.65625"/>
       <use xlink:href="#DejaVuSans-31" x="286.279297"/>
       <use xlink:href="#DejaVuSans-30" x="349.902344"/>
      </g>
     </g>
    </g>
   </g>
   <g id="line2d_16">
    <path d="M 73.832727 250.592516 
L 76.267636 250.56998 
L 83.572364 250.511387 
L 84.384 250.412231 
L 89.253818 250.457302 
L 92.500364 250.371667 
L 94.935273 250.443781 
L 95.746909 250.56998 
L 103.051636 250.33561 
L 104.674909 250.376174 
L 106.298182 250.218424 
L 107.921455 250.340117 
L 110.356364 250.213917 
L 112.791273 250.213917 
L 114.414545 250.105746 
L 117.661091 250.263495 
L 118.472727 250.119267 
L 129.835636 249.78574 
L 132.270545 249.889404 
L 133.893818 249.812783 
L 134.705455 249.893911 
L 136.328727 249.686583 
L 137.952 249.632498 
L 139.575273 249.564891 
L 141.198545 249.316999 
L 142.010182 249.136714 
L 146.068364 249.195307 
L 149.314909 249.569398 
L 152.561455 249.799261 
L 157.431273 249.713626 
L 159.054545 249.483763 
L 162.301091 249.443199 
L 164.736 249.037557 
L 166.359273 248.848258 
L 167.170909 248.821215 
L 169.605818 248.275853 
L 172.852364 247.604291 
L 175.287273 247.410485 
L 180.968727 247.829647 
L 182.592 248.136132 
L 184.215273 248.555295 
L 186.650182 248.920372 
L 189.085091 249.443199 
L 189.896727 249.605455 
L 193.143273 249.835318 
L 194.766545 250.011096 
L 196.389818 250.110253 
L 197.201455 250.254481 
L 203.694545 250.011096 
L 207.752727 249.731655 
L 215.869091 249.141221 
L 217.492364 248.951922 
L 219.115636 248.812201 
L 219.927273 248.676987 
L 220.738909 248.695016 
L 221.550545 248.595859 
L 223.173818 248.18571 
L 230.478545 247.185128 
L 231.290182 246.941743 
L 232.101818 246.842587 
L 233.725091 246.477509 
L 235.348364 246.22511 
L 237.783273 245.63017 
L 239.406545 245.035229 
L 240.218182 244.895508 
L 248.334545 242.114611 
L 249.957818 241.357414 
L 253.204364 240.194576 
L 254.016 239.77992 
L 261.320727 237.418186 
L 264.567273 236.823245 
L 266.190545 236.534789 
L 267.002182 236.458168 
L 267.813818 236.201262 
L 269.437091 236.034498 
L 271.060364 235.989427 
L 274.306909 236.002948 
L 277.553455 236.368025 
L 280.8 236.958459 
L 283.234909 237.228886 
L 288.916364 238.301582 
L 289.728 238.594546 
L 292.162909 238.93258 
L 293.786182 239.05878 
L 298.656 239.955698 
L 299.467636 239.933162 
L 302.714182 241.010365 
L 305.960727 241.384457 
L 306.772364 241.569249 
L 308.395636 242.177711 
L 311.642182 242.452646 
L 312.453818 242.389546 
L 314.077091 242.641945 
L 315.700364 243.034065 
L 316.512 243.295478 
L 318.135273 243.358578 
L 320.570182 243.142236 
L 323.816727 243.786755 
L 325.44 243.885912 
L 327.874909 243.529849 
L 328.686545 243.570413 
L 330.309818 243.985069 
L 331.933091 244.462824 
L 332.744727 244.548459 
L 334.368 244.32761 
L 336.802909 243.944505 
L 337.614545 243.939997 
L 339.237818 244.273525 
L 340.861091 244.913537 
L 341.672727 244.990158 
L 343.296 244.647616 
L 345.730909 244.079718 
L 348.165818 244.679166 
L 349.789091 245.314671 
L 351.412364 245.400306 
L 353.035636 244.972129 
L 355.470545 244.35916 
L 357.093818 244.742266 
L 357.905455 244.967622 
L 359.528727 245.751862 
L 360.340364 245.878062 
L 361.963636 245.625663 
L 365.210182 244.444796 
L 366.021818 244.363667 
L 367.645091 244.670152 
L 370.891636 246.180039 
L 371.703273 246.152996 
L 372.514909 245.869047 
L 373.326545 245.391292 
L 376.573091 244.12479 
L 377.384727 244.165354 
L 379.008 244.670152 
L 379.819636 245.039736 
L 381.442909 245.963697 
L 382.254545 246.157503 
L 383.066182 246.202575 
L 383.877818 246.094404 
L 384.689455 245.83299 
L 386.312727 244.927058 
L 387.936 244.034647 
L 388.747636 243.854362 
L 389.559273 243.809291 
L 390.370909 243.962533 
L 391.994182 244.643109 
L 393.617455 245.657212 
L 394.429091 246.02229 
L 395.240727 246.148489 
L 396.864 245.995247 
L 397.675636 245.549041 
L 398.487273 244.940579 
L 398.487273 244.940579 
" clip-path="url(#pdf834e2c5b)" style="fill: none; stroke: #1f77b4; stroke-width: 1.5; stroke-linecap: square"/>
   </g>
   <g id="line2d_17">
    <path d="M 73.832727 295.488 
L 74.644364 295.488 
L 75.456 294.924609 
L 76.267636 294.586575 
L 77.079273 293.572471 
L 77.890909 293.234437 
L 80.325818 291.093552 
L 81.137455 290.755517 
L 83.572364 289.178023 
L 85.195636 288.276598 
L 86.818909 287.037138 
L 87.630545 286.473748 
L 88.442182 285.685 
L 89.253818 285.346966 
L 90.877091 284.220184 
L 91.688727 283.88215 
L 92.500364 282.980725 
L 93.312 282.304656 
L 94.935273 281.403231 
L 96.558545 280.051093 
L 97.370182 279.713058 
L 98.181818 278.924311 
L 98.993455 278.698955 
L 99.805091 277.79753 
L 100.616727 277.459495 
L 102.24 275.882001 
L 103.051636 275.31861 
L 104.674909 274.642541 
L 105.486545 273.741116 
L 107.109818 272.727013 
L 109.544727 270.811484 
L 111.168 269.910059 
L 111.979636 269.008633 
L 112.791273 268.670599 
L 114.414545 267.205783 
L 115.226182 266.417036 
L 117.661091 265.177576 
L 118.472727 264.388829 
L 120.907636 262.585979 
L 123.342545 260.67045 
L 124.154182 260.219737 
L 124.965818 259.543668 
L 125.777455 259.205634 
L 126.589091 258.529565 
L 127.400727 257.62814 
L 128.212364 257.515462 
L 132.270545 254.135117 
L 133.082182 253.797082 
L 133.893818 252.895657 
L 134.705455 252.332266 
L 136.328727 251.543519 
L 139.575273 248.839244 
L 140.386909 248.501209 
L 141.198545 247.82514 
L 142.010182 247.487106 
L 142.821818 246.923715 
L 143.633455 246.02229 
L 144.445091 245.796933 
L 145.256727 244.670152 
L 146.068364 244.444796 
L 146.88 243.54337 
L 147.691636 243.318014 
L 148.503273 242.078554 
L 149.314909 241.853198 
L 150.126545 241.177129 
L 151.749818 240.163026 
L 152.561455 239.486957 
L 153.373091 238.585531 
L 154.996364 237.909463 
L 159.866182 233.853049 
L 160.677818 233.627693 
L 161.489455 232.726267 
L 163.924364 231.261451 
L 164.736 230.360026 
L 165.547636 229.796635 
L 166.359273 229.458601 
L 167.170909 228.669854 
L 167.982545 228.219141 
L 169.605818 226.754325 
L 171.229091 225.965578 
L 172.040727 224.951475 
L 176.098909 222.021843 
L 176.910545 221.233095 
L 180.157091 219.092211 
L 180.968727 218.078107 
L 181.780364 217.627395 
L 182.592 216.951326 
L 184.215273 215.937222 
L 185.026909 215.261153 
L 185.838545 214.810441 
L 186.650182 213.909015 
L 187.461818 213.570981 
L 188.273455 213.00759 
L 189.085091 212.106165 
L 190.708364 210.754027 
L 192.331636 209.739924 
L 193.954909 208.387786 
L 196.389818 206.92297 
L 200.448 203.429947 
L 201.259636 203.091912 
L 202.071273 202.303165 
L 202.882909 202.190487 
L 203.694545 201.289062 
L 206.129455 199.260855 
L 206.941091 198.922821 
L 207.752727 198.021395 
L 208.564364 197.570683 
L 209.376 196.781936 
L 211.810909 194.979085 
L 212.622545 194.303016 
L 213.434182 193.964982 
L 214.245818 193.176235 
L 215.057455 192.725522 
L 215.869091 191.936775 
L 218.304 190.246603 
L 219.115636 189.345177 
L 219.927273 189.232499 
L 220.738909 188.218396 
L 223.173818 186.640902 
L 223.985455 186.190189 
L 225.608727 184.838051 
L 226.420364 183.823948 
L 227.232 183.71127 
L 228.043636 182.809844 
L 228.855273 182.47181 
L 233.725091 178.528075 
L 234.536727 178.077362 
L 235.348364 177.288615 
L 236.971636 176.161833 
L 237.783273 175.373086 
L 239.406545 174.358983 
L 241.029818 172.894167 
L 241.841455 172.556132 
L 244.276364 170.527925 
L 245.899636 169.739178 
L 246.711273 168.612397 
L 247.522909 167.936328 
L 248.334545 167.710972 
L 249.146182 166.809546 
L 249.957818 166.133477 
L 250.769455 165.682765 
L 253.204364 163.767236 
L 254.016 163.429202 
L 254.827636 162.865811 
L 255.639273 161.964386 
L 256.450909 161.288317 
L 257.262545 160.837604 
L 258.074182 159.936179 
L 258.885818 159.485466 
L 259.697455 158.696719 
L 261.320727 157.682616 
L 262.944 156.330478 
L 263.755636 155.879765 
L 266.190545 153.964237 
L 267.002182 153.626202 
L 267.813818 152.724777 
L 268.625455 152.048708 
L 269.437091 151.710673 
L 270.248727 150.809248 
L 272.683636 149.006398 
L 274.306909 147.65426 
L 275.930182 146.640156 
L 276.741818 145.964088 
L 277.553455 144.949984 
L 279.176727 144.161237 
L 283.234909 141.231605 
L 284.046545 140.442858 
L 286.481455 138.640007 
L 287.293091 137.963939 
L 288.104727 137.513226 
L 288.916364 136.611801 
L 290.539636 135.597697 
L 292.162909 134.583594 
L 292.974545 133.344134 
L 293.786182 133.231456 
L 295.409455 131.76664 
L 296.221091 131.428605 
L 297.032727 130.639858 
L 299.467636 128.949686 
L 300.279273 128.048261 
L 301.090909 127.597548 
L 301.902545 126.583445 
L 302.714182 126.358088 
L 305.149091 124.217204 
L 305.960727 123.879169 
L 306.772364 123.2031 
L 307.584 122.301675 
L 308.395636 121.738284 
L 309.207273 121.512928 
L 310.018909 120.949537 
L 310.830545 120.048112 
L 312.453818 119.034008 
L 314.077091 117.569192 
L 315.700364 116.555089 
L 316.512 115.766342 
L 318.946909 114.07617 
L 320.570182 112.611354 
L 321.381818 111.935285 
L 322.193455 111.484572 
L 323.005091 110.808503 
L 323.816727 110.470469 
L 324.628364 109.681721 
L 325.44 109.343687 
L 326.251636 108.667618 
L 327.063273 107.653515 
L 331.121455 104.723883 
L 331.933091 103.935136 
L 332.744727 103.597101 
L 334.368 102.47032 
L 335.179636 101.681572 
L 335.991273 101.23086 
L 336.802909 100.442113 
L 338.426182 99.315331 
L 339.237818 98.977297 
L 340.049455 97.850515 
L 341.672727 97.061768 
L 343.296 95.596952 
L 344.107636 95.146239 
L 345.730909 93.456067 
L 347.354182 92.66732 
L 348.977455 91.202504 
L 349.789091 90.526435 
L 350.600727 90.075722 
L 352.224 88.836263 
L 353.035636 88.498228 
L 354.658909 87.033412 
L 355.470545 85.906631 
L 356.282182 85.681274 
L 357.905455 84.441815 
L 359.528727 83.089677 
L 361.152 82.30093 
L 361.963636 81.286826 
L 362.775273 80.836114 
L 363.586909 80.160045 
L 364.398545 79.258619 
L 365.210182 79.033263 
L 366.021818 78.244516 
L 367.645091 77.230413 
L 368.456727 76.667022 
L 369.268364 75.765597 
L 370.08 75.089528 
L 370.891636 74.638815 
L 371.703273 73.850068 
L 372.514909 73.399355 
L 373.326545 72.723286 
L 374.138182 71.821861 
L 374.949818 71.483827 
L 375.761455 70.920436 
L 376.573091 70.69508 
L 377.384727 69.793654 
L 378.196364 69.230264 
L 379.008 68.328838 
L 379.819636 67.878126 
L 381.442909 66.41331 
L 382.254545 65.962597 
L 383.877818 64.723137 
L 384.689455 64.497781 
L 386.312727 63.145643 
L 387.124364 62.13154 
L 387.936 61.455471 
L 389.559273 60.554046 
L 390.370909 59.65262 
L 391.182545 59.314586 
L 391.994182 58.187804 
L 392.805818 58.075126 
L 393.617455 57.624414 
L 395.240727 56.272276 
L 396.052364 55.258172 
L 396.864 55.032816 
L 398.487273 53.568 
L 398.487273 53.568 
" clip-path="url(#pdf834e2c5b)" style="fill: none; stroke: #ff7f0e; stroke-width: 1.5; stroke-linecap: square"/>
   </g>
   <g id="patch_3">
    <path d="M 57.6 307.584 
L 57.6 41.472 
" style="fill: none; stroke: #000000; stroke-width: 0.8; stroke-linejoin: miter; stroke-linecap: square"/>
   </g>
   <g id="patch_4">
    <path d="M 414.72 307.584 
L 414.72 41.472 
" style="fill: none; stroke: #000000; stroke-width: 0.8; stroke-linejoin: miter; stroke-linecap: square"/>
   </g>
   <g id="patch_5">
    <path d="M 57.6 307.584 
L 414.72 307.584 
" style="fill: none; stroke: #000000; stroke-width: 0.8; stroke-linejoin: miter; stroke-linecap: square"/>
   </g>
   <g id="patch_6">
    <path d="M 57.6 41.472 
L 414.72 41.472 
" style="fill: none; stroke: #000000; stroke-width: 0.8; stroke-linejoin: miter; stroke-linecap: square"/>
   </g>
  </g>
 </g>
 <defs>
  <clipPath id="pdf834e2c5b">
   <rect x="57.6" y="41.472" width="357.12" height="266.112"/>
  </clipPath>
 </defs>
</svg>
