<?xml version="1.0" encoding="utf-8" standalone="no"?>
<!DOCTYPE svg PUBLIC "-//W3C//DTD SVG 1.1//EN"
  "http://www.w3.org/Graphics/SVG/1.1/DTD/svg11.dtd">
<svg xmlns:xlink="http://www.w3.org/1999/xlink" width="460.8pt" height="345.6pt" viewBox="0 0 460.8 345.6" xmlns="http://www.w3.org/2000/svg" version="1.1">
 <metadata>
  <rdf:RDF xmlns:dc="http://purl.org/dc/elements/1.1/" xmlns:cc="http://creativecommons.org/ns#" xmlns:rdf="http://www.w3.org/1999/02/22-rdf-syntax-ns#">
   <cc:Work>
    <dc:type rdf:resource="http://purl.org/dc/dcmitype/StillImage"/>
    <dc:date>2023-01-23T00:38:12.816150</dc:date>
    <dc:format>image/svg+xml</dc:format>
    <dc:creator>
     <cc:Agent>
      <dc:title>Matplotlib v3.6.3, https://matplotlib.org/</dc:title>
     </cc:Agent>
    </dc:creator>
   </cc:Work>
  </rdf:RDF>
 </metadata>
 <defs>
  <style type="text/css">*{stroke-linejoin: round; stroke-linecap: butt}</style>
 </defs>
 <g id="figure_1">
  <g id="patch_1">
   <path d="M 0 345.6 
L 460.8 345.6 
L 460.8 0 
L 0 0 
z
" style="fill: #ffffff"/>
  </g>
  <g id="axes_1">
   <g id="patch_2">
    <path d="M 57.6 307.584 
L 414.72 307.584 
L 414.72 41.472 
L 57.6 41.472 
z
" style="fill: #ffffff"/>
   </g>
   <g id="matplotlib.axis_1">
    <g id="xtick_1">
     <g id="line2d_1">
      <defs>
       <path id="m47a75dc45b" d="M 0 0 
L 0 3.5 
" style="stroke: #000000; stroke-width: 0.8"/>
      </defs>
      <g>
       <use xlink:href="#m47a75dc45b" x="73.832727" y="307.584" style="stroke: #000000; stroke-width: 0.8"/>
      </g>
     </g>
     <g id="text_1">
      <!-- 0.0 -->
      <g transform="translate(65.881165 322.182437) scale(0.1 -0.1)">
       <defs>
        <path id="DejaVuSans-30" d="M 2034 4250 
Q 1547 4250 1301 3770 
Q 1056 3291 1056 2328 
Q 1056 1369 1301 889 
Q 1547 409 2034 409 
Q 2525 409 2770 889 
Q 3016 1369 3016 2328 
Q 3016 3291 2770 3770 
Q 2525 4250 2034 4250 
z
M 2034 4750 
Q 2819 4750 3233 4129 
Q 3647 3509 3647 2328 
Q 3647 1150 3233 529 
Q 2819 -91 2034 -91 
Q 1250 -91 836 529 
Q 422 1150 422 2328 
Q 422 3509 836 4129 
Q 1250 4750 2034 4750 
z
" transform="scale(0.015625)"/>
        <path id="DejaVuSans-2e" d="M 684 794 
L 1344 794 
L 1344 0 
L 684 0 
L 684 794 
z
" transform="scale(0.015625)"/>
       </defs>
       <use xlink:href="#DejaVuSans-30"/>
       <use xlink:href="#DejaVuSans-2e" x="63.623047"/>
       <use xlink:href="#DejaVuSans-30" x="95.410156"/>
      </g>
     </g>
    </g>
    <g id="xtick_2">
     <g id="line2d_2">
      <g>
       <use xlink:href="#m47a75dc45b" x="114.414545" y="307.584" style="stroke: #000000; stroke-width: 0.8"/>
      </g>
     </g>
     <g id="text_2">
      <!-- 0.5 -->
      <g transform="translate(106.462983 322.182437) scale(0.1 -0.1)">
       <defs>
        <path id="DejaVuSans-35" d="M 691 4666 
L 3169 4666 
L 3169 4134 
L 1269 4134 
L 1269 2991 
Q 1406 3038 1543 3061 
Q 1681 3084 1819 3084 
Q 2600 3084 3056 2656 
Q 3513 2228 3513 1497 
Q 3513 744 3044 326 
Q 2575 -91 1722 -91 
Q 1428 -91 1123 -41 
Q 819 9 494 109 
L 494 744 
Q 775 591 1075 516 
Q 1375 441 1709 441 
Q 2250 441 2565 725 
Q 2881 1009 2881 1497 
Q 2881 1984 2565 2268 
Q 2250 2553 1709 2553 
Q 1456 2553 1204 2497 
Q 953 2441 691 2322 
L 691 4666 
z
" transform="scale(0.015625)"/>
       </defs>
       <use xlink:href="#DejaVuSans-30"/>
       <use xlink:href="#DejaVuSans-2e" x="63.623047"/>
       <use xlink:href="#DejaVuSans-35" x="95.410156"/>
      </g>
     </g>
    </g>
    <g id="xtick_3">
     <g id="line2d_3">
      <g>
       <use xlink:href="#m47a75dc45b" x="154.996364" y="307.584" style="stroke: #000000; stroke-width: 0.8"/>
      </g>
     </g>
     <g id="text_3">
      <!-- 1.0 -->
      <g transform="translate(147.044801 322.182437) scale(0.1 -0.1)">
       <defs>
        <path id="DejaVuSans-31" d="M 794 531 
L 1825 531 
L 1825 4091 
L 703 3866 
L 703 4441 
L 1819 4666 
L 2450 4666 
L 2450 531 
L 3481 531 
L 3481 0 
L 794 0 
L 794 531 
z
" transform="scale(0.015625)"/>
       </defs>
       <use xlink:href="#DejaVuSans-31"/>
       <use xlink:href="#DejaVuSans-2e" x="63.623047"/>
       <use xlink:href="#DejaVuSans-30" x="95.410156"/>
      </g>
     </g>
    </g>
    <g id="xtick_4">
     <g id="line2d_4">
      <g>
       <use xlink:href="#m47a75dc45b" x="195.578182" y="307.584" style="stroke: #000000; stroke-width: 0.8"/>
      </g>
     </g>
     <g id="text_4">
      <!-- 1.5 -->
      <g transform="translate(187.626619 322.182437) scale(0.1 -0.1)">
       <use xlink:href="#DejaVuSans-31"/>
       <use xlink:href="#DejaVuSans-2e" x="63.623047"/>
       <use xlink:href="#DejaVuSans-35" x="95.410156"/>
      </g>
     </g>
    </g>
    <g id="xtick_5">
     <g id="line2d_5">
      <g>
       <use xlink:href="#m47a75dc45b" x="236.16" y="307.584" style="stroke: #000000; stroke-width: 0.8"/>
      </g>
     </g>
     <g id="text_5">
      <!-- 2.0 -->
      <g transform="translate(228.208438 322.182437) scale(0.1 -0.1)">
       <defs>
        <path id="DejaVuSans-32" d="M 1228 531 
L 3431 531 
L 3431 0 
L 469 0 
L 469 531 
Q 828 903 1448 1529 
Q 2069 2156 2228 2338 
Q 2531 2678 2651 2914 
Q 2772 3150 2772 3378 
Q 2772 3750 2511 3984 
Q 2250 4219 1831 4219 
Q 1534 4219 1204 4116 
Q 875 4013 500 3803 
L 500 4441 
Q 881 4594 1212 4672 
Q 1544 4750 1819 4750 
Q 2544 4750 2975 4387 
Q 3406 4025 3406 3419 
Q 3406 3131 3298 2873 
Q 3191 2616 2906 2266 
Q 2828 2175 2409 1742 
Q 1991 1309 1228 531 
z
" transform="scale(0.015625)"/>
       </defs>
       <use xlink:href="#DejaVuSans-32"/>
       <use xlink:href="#DejaVuSans-2e" x="63.623047"/>
       <use xlink:href="#DejaVuSans-30" x="95.410156"/>
      </g>
     </g>
    </g>
    <g id="xtick_6">
     <g id="line2d_6">
      <g>
       <use xlink:href="#m47a75dc45b" x="276.741818" y="307.584" style="stroke: #000000; stroke-width: 0.8"/>
      </g>
     </g>
     <g id="text_6">
      <!-- 2.5 -->
      <g transform="translate(268.790256 322.182437) scale(0.1 -0.1)">
       <use xlink:href="#DejaVuSans-32"/>
       <use xlink:href="#DejaVuSans-2e" x="63.623047"/>
       <use xlink:href="#DejaVuSans-35" x="95.410156"/>
      </g>
     </g>
    </g>
    <g id="xtick_7">
     <g id="line2d_7">
      <g>
       <use xlink:href="#m47a75dc45b" x="317.323636" y="307.584" style="stroke: #000000; stroke-width: 0.8"/>
      </g>
     </g>
     <g id="text_7">
      <!-- 3.0 -->
      <g transform="translate(309.372074 322.182437) scale(0.1 -0.1)">
       <defs>
        <path id="DejaVuSans-33" d="M 2597 2516 
Q 3050 2419 3304 2112 
Q 3559 1806 3559 1356 
Q 3559 666 3084 287 
Q 2609 -91 1734 -91 
Q 1441 -91 1130 -33 
Q 819 25 488 141 
L 488 750 
Q 750 597 1062 519 
Q 1375 441 1716 441 
Q 2309 441 2620 675 
Q 2931 909 2931 1356 
Q 2931 1769 2642 2001 
Q 2353 2234 1838 2234 
L 1294 2234 
L 1294 2753 
L 1863 2753 
Q 2328 2753 2575 2939 
Q 2822 3125 2822 3475 
Q 2822 3834 2567 4026 
Q 2313 4219 1838 4219 
Q 1578 4219 1281 4162 
Q 984 4106 628 3988 
L 628 4550 
Q 988 4650 1302 4700 
Q 1616 4750 1894 4750 
Q 2613 4750 3031 4423 
Q 3450 4097 3450 3541 
Q 3450 3153 3228 2886 
Q 3006 2619 2597 2516 
z
" transform="scale(0.015625)"/>
       </defs>
       <use xlink:href="#DejaVuSans-33"/>
       <use xlink:href="#DejaVuSans-2e" x="63.623047"/>
       <use xlink:href="#DejaVuSans-30" x="95.410156"/>
      </g>
     </g>
    </g>
    <g id="xtick_8">
     <g id="line2d_8">
      <g>
       <use xlink:href="#m47a75dc45b" x="357.905455" y="307.584" style="stroke: #000000; stroke-width: 0.8"/>
      </g>
     </g>
     <g id="text_8">
      <!-- 3.5 -->
      <g transform="translate(349.953892 322.182437) scale(0.1 -0.1)">
       <use xlink:href="#DejaVuSans-33"/>
       <use xlink:href="#DejaVuSans-2e" x="63.623047"/>
       <use xlink:href="#DejaVuSans-35" x="95.410156"/>
      </g>
     </g>
    </g>
    <g id="xtick_9">
     <g id="line2d_9">
      <g>
       <use xlink:href="#m47a75dc45b" x="398.487273" y="307.584" style="stroke: #000000; stroke-width: 0.8"/>
      </g>
     </g>
     <g id="text_9">
      <!-- 4.0 -->
      <g transform="translate(390.53571 322.182437) scale(0.1 -0.1)">
       <defs>
        <path id="DejaVuSans-34" d="M 2419 4116 
L 825 1625 
L 2419 1625 
L 2419 4116 
z
M 2253 4666 
L 3047 4666 
L 3047 1625 
L 3713 1625 
L 3713 1100 
L 3047 1100 
L 3047 0 
L 2419 0 
L 2419 1100 
L 313 1100 
L 313 1709 
L 2253 4666 
z
" transform="scale(0.015625)"/>
       </defs>
       <use xlink:href="#DejaVuSans-34"/>
       <use xlink:href="#DejaVuSans-2e" x="63.623047"/>
       <use xlink:href="#DejaVuSans-30" x="95.410156"/>
      </g>
     </g>
    </g>
   </g>
   <g id="matplotlib.axis_2">
    <g id="ytick_1">
     <g id="line2d_10">
      <defs>
       <path id="m915e8dd590" d="M 0 0 
L -3.5 0 
" style="stroke: #000000; stroke-width: 0.8"/>
      </defs>
      <g>
       <use xlink:href="#m915e8dd590" x="57.6" y="295.313664" style="stroke: #000000; stroke-width: 0.8"/>
      </g>
     </g>
     <g id="text_10">
      <!-- 0.0000 -->
      <g transform="translate(15.609375 299.112883) scale(0.1 -0.1)">
       <use xlink:href="#DejaVuSans-30"/>
       <use xlink:href="#DejaVuSans-2e" x="63.623047"/>
       <use xlink:href="#DejaVuSans-30" x="95.410156"/>
       <use xlink:href="#DejaVuSans-30" x="159.033203"/>
       <use xlink:href="#DejaVuSans-30" x="222.65625"/>
       <use xlink:href="#DejaVuSans-30" x="286.279297"/>
      </g>
     </g>
    </g>
    <g id="ytick_2">
     <g id="line2d_11">
      <g>
       <use xlink:href="#m915e8dd590" x="57.6" y="248.824113" style="stroke: #000000; stroke-width: 0.8"/>
      </g>
     </g>
     <g id="text_11">
      <!-- 0.0002 -->
      <g transform="translate(15.609375 252.623332) scale(0.1 -0.1)">
       <use xlink:href="#DejaVuSans-30"/>
       <use xlink:href="#DejaVuSans-2e" x="63.623047"/>
       <use xlink:href="#DejaVuSans-30" x="95.410156"/>
       <use xlink:href="#DejaVuSans-30" x="159.033203"/>
       <use xlink:href="#DejaVuSans-30" x="222.65625"/>
       <use xlink:href="#DejaVuSans-32" x="286.279297"/>
      </g>
     </g>
    </g>
    <g id="ytick_3">
     <g id="line2d_12">
      <g>
       <use xlink:href="#m915e8dd590" x="57.6" y="202.334563" style="stroke: #000000; stroke-width: 0.8"/>
      </g>
     </g>
     <g id="text_12">
      <!-- 0.0004 -->
      <g transform="translate(15.609375 206.133781) scale(0.1 -0.1)">
       <use xlink:href="#DejaVuSans-30"/>
       <use xlink:href="#DejaVuSans-2e" x="63.623047"/>
       <use xlink:href="#DejaVuSans-30" x="95.410156"/>
       <use xlink:href="#DejaVuSans-30" x="159.033203"/>
       <use xlink:href="#DejaVuSans-30" x="222.65625"/>
       <use xlink:href="#DejaVuSans-34" x="286.279297"/>
      </g>
     </g>
    </g>
    <g id="ytick_4">
     <g id="line2d_13">
      <g>
       <use xlink:href="#m915e8dd590" x="57.6" y="155.845012" style="stroke: #000000; stroke-width: 0.8"/>
      </g>
     </g>
     <g id="text_13">
      <!-- 0.0006 -->
      <g transform="translate(15.609375 159.644231) scale(0.1 -0.1)">
       <defs>
        <path id="DejaVuSans-36" d="M 2113 2584 
Q 1688 2584 1439 2293 
Q 1191 2003 1191 1497 
Q 1191 994 1439 701 
Q 1688 409 2113 409 
Q 2538 409 2786 701 
Q 3034 994 3034 1497 
Q 3034 2003 2786 2293 
Q 2538 2584 2113 2584 
z
M 3366 4563 
L 3366 3988 
Q 3128 4100 2886 4159 
Q 2644 4219 2406 4219 
Q 1781 4219 1451 3797 
Q 1122 3375 1075 2522 
Q 1259 2794 1537 2939 
Q 1816 3084 2150 3084 
Q 2853 3084 3261 2657 
Q 3669 2231 3669 1497 
Q 3669 778 3244 343 
Q 2819 -91 2113 -91 
Q 1303 -91 875 529 
Q 447 1150 447 2328 
Q 447 3434 972 4092 
Q 1497 4750 2381 4750 
Q 2619 4750 2861 4703 
Q 3103 4656 3366 4563 
z
" transform="scale(0.015625)"/>
       </defs>
       <use xlink:href="#DejaVuSans-30"/>
       <use xlink:href="#DejaVuSans-2e" x="63.623047"/>
       <use xlink:href="#DejaVuSans-30" x="95.410156"/>
       <use xlink:href="#DejaVuSans-30" x="159.033203"/>
       <use xlink:href="#DejaVuSans-30" x="222.65625"/>
       <use xlink:href="#DejaVuSans-36" x="286.279297"/>
      </g>
     </g>
    </g>
    <g id="ytick_5">
     <g id="line2d_14">
      <g>
       <use xlink:href="#m915e8dd590" x="57.6" y="109.355461" style="stroke: #000000; stroke-width: 0.8"/>
      </g>
     </g>
     <g id="text_14">
      <!-- 0.0008 -->
      <g transform="translate(15.609375 113.15468) scale(0.1 -0.1)">
       <defs>
        <path id="DejaVuSans-38" d="M 2034 2216 
Q 1584 2216 1326 1975 
Q 1069 1734 1069 1313 
Q 1069 891 1326 650 
Q 1584 409 2034 409 
Q 2484 409 2743 651 
Q 3003 894 3003 1313 
Q 3003 1734 2745 1975 
Q 2488 2216 2034 2216 
z
M 1403 2484 
Q 997 2584 770 2862 
Q 544 3141 544 3541 
Q 544 4100 942 4425 
Q 1341 4750 2034 4750 
Q 2731 4750 3128 4425 
Q 3525 4100 3525 3541 
Q 3525 3141 3298 2862 
Q 3072 2584 2669 2484 
Q 3125 2378 3379 2068 
Q 3634 1759 3634 1313 
Q 3634 634 3220 271 
Q 2806 -91 2034 -91 
Q 1263 -91 848 271 
Q 434 634 434 1313 
Q 434 1759 690 2068 
Q 947 2378 1403 2484 
z
M 1172 3481 
Q 1172 3119 1398 2916 
Q 1625 2713 2034 2713 
Q 2441 2713 2670 2916 
Q 2900 3119 2900 3481 
Q 2900 3844 2670 4047 
Q 2441 4250 2034 4250 
Q 1625 4250 1398 4047 
Q 1172 3844 1172 3481 
z
" transform="scale(0.015625)"/>
       </defs>
       <use xlink:href="#DejaVuSans-30"/>
       <use xlink:href="#DejaVuSans-2e" x="63.623047"/>
       <use xlink:href="#DejaVuSans-30" x="95.410156"/>
       <use xlink:href="#DejaVuSans-30" x="159.033203"/>
       <use xlink:href="#DejaVuSans-30" x="222.65625"/>
       <use xlink:href="#DejaVuSans-38" x="286.279297"/>
      </g>
     </g>
    </g>
    <g id="ytick_6">
     <g id="line2d_15">
      <g>
       <use xlink:href="#m915e8dd590" x="57.6" y="62.86591" style="stroke: #000000; stroke-width: 0.8"/>
      </g>
     </g>
     <g id="text_15">
      <!-- 0.0010 -->
      <g transform="translate(15.609375 66.665129) scale(0.1 -0.1)">
       <use xlink:href="#DejaVuSans-30"/>
       <use xlink:href="#DejaVuSans-2e" x="63.623047"/>
       <use xlink:href="#DejaVuSans-30" x="95.410156"/>
       <use xlink:href="#DejaVuSans-30" x="159.033203"/>
       <use xlink:href="#DejaVuSans-31" x="222.65625"/>
       <use xlink:href="#DejaVuSans-30" x="286.279297"/>
      </g>
     </g>
    </g>
   </g>
   <g id="line2d_16">
    <path d="M 73.832727 293.651663 
L 75.456 293.802754 
L 77.079273 294.081691 
L 80.325818 294.22116 
L 81.949091 294.197915 
L 83.572364 294.337384 
L 86.818909 294.279272 
L 90.065455 294.244405 
L 91.688727 294.232782 
L 93.312 294.41874 
L 96.558545 294.279272 
L 99.805091 294.244405 
L 103.051636 294.256027 
L 104.674909 294.488475 
L 109.544727 294.17467 
L 114.414545 294.070069 
L 116.037818 294.000334 
L 119.284364 294.360628 
L 120.907636 293.791131 
L 122.530909 294.372251 
L 124.154182 293.988712 
L 125.777455 294.232782 
L 127.400727 293.907355 
L 129.024 294.325761 
L 130.647273 293.349481 
L 132.270545 294.767412 
L 133.893818 293.1519 
L 135.517091 293.721397 
L 137.140364 294.604699 
L 138.763636 292.86134 
L 140.386909 293.68653 
L 142.010182 294.825524 
L 143.633455 293.035676 
L 145.256727 292.582403 
L 146.88 294.209537 
L 148.503273 294.616321 
L 150.126545 292.524291 
L 151.749818 292.163997 
L 154.996364 294.976615 
L 156.619636 293.849243 
L 158.242909 292.001284 
L 159.866182 291.548011 
L 161.489455 292.675382 
L 163.112727 294.744167 
L 164.736 295.092839 
L 167.982545 291.30394 
L 169.605818 290.827423 
L 171.229091 291.513143 
L 172.852364 293.454082 
L 174.475636 294.895258 
L 176.098909 295.023104 
L 177.722182 293.244879 
L 179.345455 291.094737 
L 180.968727 290.164946 
L 182.592 289.874387 
L 184.215273 290.467129 
L 185.838545 292.245354 
L 187.461818 294.256027 
L 189.085091 295.267175 
L 190.708364 295.209063 
L 192.331636 293.512194 
L 193.954909 291.222584 
L 195.578182 289.676806 
L 197.201455 288.944596 
L 198.824727 288.654036 
L 200.448 288.851617 
L 202.071273 289.665184 
L 203.694545 291.117982 
L 205.317818 293.233257 
L 206.941091 295.011482 
L 208.564364 295.336909 
L 210.187636 295.174196 
L 211.810909 293.721397 
L 213.434182 291.420164 
L 215.057455 289.676806 
L 216.680727 288.4797 
L 218.304 287.74749 
L 219.927273 287.422063 
L 221.550545 287.236105 
L 223.173818 287.236105 
L 224.797091 287.515042 
L 226.420364 288.165896 
L 228.043636 289.409491 
L 229.666909 291.269073 
L 231.290182 293.465705 
L 232.913455 295.046349 
L 234.536727 295.348531 
L 236.16 295.418266 
L 237.783273 295.185818 
L 239.406545 293.825999 
L 241.029818 291.559633 
L 242.653091 289.676806 
L 244.276364 288.038049 
L 245.899636 286.852566 
L 247.522909 286.236579 
L 249.146182 286.085488 
L 250.769455 286.085488 
L 252.392727 286.224957 
L 254.016 286.213335 
L 255.639273 286.027376 
L 258.885818 285.423012 
L 260.509091 285.388145 
L 262.132364 285.70195 
L 263.755636 286.562006 
L 265.378909 287.910203 
L 267.002182 289.572205 
L 270.248727 293.721397 
L 271.872 294.99986 
L 273.495273 295.418266 
L 278.365091 295.383399 
L 279.988364 294.674433 
L 281.611636 293.244879 
L 283.234909 291.292318 
L 284.858182 288.96784 
L 286.481455 287.189615 
L 288.104727 285.70195 
L 289.728 284.609445 
L 291.351273 283.993459 
L 292.974545 283.644787 
L 294.597818 283.691276 
L 296.221091 284.074815 
L 297.844364 284.609445 
L 301.090909 286.317936 
L 302.714182 287.119881 
L 304.337455 287.666133 
L 305.960727 287.875336 
L 307.584 287.666133 
L 309.207273 286.980412 
L 310.830545 286.085488 
L 314.077091 283.946969 
L 315.700364 283.110157 
L 317.323636 282.494171 
L 318.946909 282.273345 
L 320.570182 282.34308 
L 322.193455 282.645262 
L 323.816727 283.354227 
L 325.44 284.214284 
L 327.063273 285.353278 
L 328.686545 287.050147 
L 330.309818 288.921351 
L 333.556364 292.872963 
L 335.179636 294.500097 
L 336.802909 295.19744 
L 340.049455 295.418266 
L 341.672727 295.488 
L 344.919273 295.44151 
L 348.165818 295.395021 
L 349.789091 294.941748 
L 351.412364 293.849243 
L 354.658909 290.025478 
L 357.905455 285.794929 
L 361.152 282.645262 
L 364.398545 280.588099 
L 367.645091 279.158545 
L 369.268364 278.716895 
L 370.891636 278.391468 
L 372.514909 278.240377 
L 374.138182 278.263621 
L 375.761455 278.472824 
L 377.384727 278.89123 
L 379.008 279.42586 
L 380.631273 280.216183 
L 382.254545 281.297065 
L 385.501091 284.074815 
L 387.124364 285.492747 
L 388.747636 287.073391 
L 391.994182 289.886009 
L 393.617455 290.86229 
L 395.240727 291.687479 
L 396.864 292.187242 
L 398.487273 292.396445 
L 398.487273 292.396445 
" clip-path="url(#p6bdf7dd62f)" style="fill: none; stroke: #1f77b4; stroke-width: 1.5; stroke-linecap: square"/>
   </g>
   <g id="line2d_17">
    <path d="M 73.832727 295.313664 
L 75.456 295.19744 
L 85.195636 288.107784 
L 88.442182 285.667082 
L 91.688727 283.342605 
L 93.312 281.831694 
L 94.935273 280.78568 
L 96.558545 279.390993 
L 99.805091 276.950292 
L 107.921455 270.674202 
L 109.544727 269.628187 
L 116.037818 264.630561 
L 117.661091 263.468322 
L 120.907636 260.795173 
L 122.530909 259.749158 
L 124.154182 258.238247 
L 125.777455 257.42468 
L 127.400727 255.797546 
L 129.024 254.867755 
L 130.647273 253.240621 
L 132.270545 252.31083 
L 135.517091 249.637681 
L 137.140364 248.940337 
L 140.386909 245.802293 
L 142.010182 244.988725 
L 143.633455 243.710263 
L 145.256727 242.083129 
L 146.88 240.92089 
L 148.503273 240.223546 
L 153.373091 235.690815 
L 154.996364 235.22592 
L 156.619636 234.179905 
L 161.489455 229.414726 
L 163.112727 228.484935 
L 164.736 228.252487 
L 166.359273 226.857801 
L 169.605818 223.371084 
L 171.229091 221.860174 
L 172.852364 220.581711 
L 174.475636 220.116816 
L 176.098909 219.768144 
L 177.722182 218.605905 
L 179.345455 216.746323 
L 185.838545 210.237786 
L 187.461818 209.424219 
L 189.085091 209.191771 
L 190.708364 209.075547 
L 192.331636 207.797085 
L 198.824727 200.939876 
L 203.694545 196.407145 
L 205.317818 195.36113 
L 206.941091 194.896234 
L 208.564364 194.896234 
L 210.187636 194.663787 
L 211.810909 193.617772 
L 216.680727 188.620145 
L 218.304 186.876787 
L 219.927273 185.365877 
L 223.173818 181.995384 
L 228.043636 177.230205 
L 229.666909 175.951742 
L 231.290182 175.138175 
L 232.913455 174.789504 
L 236.16 174.789504 
L 237.783273 174.557056 
L 239.406545 173.627265 
L 244.276364 168.745862 
L 247.522909 165.142922 
L 249.146182 163.515788 
L 250.769455 162.237325 
L 252.392727 160.610191 
L 254.016 159.331728 
L 258.885818 154.682773 
L 260.509091 152.590743 
L 262.132364 150.963609 
L 263.755636 149.104027 
L 265.378909 147.476893 
L 267.002182 146.314654 
L 268.625455 145.384863 
L 270.248727 144.803743 
L 273.495273 144.571296 
L 275.118545 144.571296 
L 276.741818 144.68752 
L 278.365091 144.455072 
L 279.988364 144.1064 
L 283.234909 141.781923 
L 288.104727 136.435624 
L 289.728 134.459818 
L 292.974545 131.089326 
L 294.597818 129.229744 
L 297.844364 126.324147 
L 299.467636 125.045684 
L 304.337455 122.023864 
L 307.584 120.280505 
L 309.207273 118.885819 
L 314.077091 113.539521 
L 318.946909 106.91476 
L 325.44 99.592655 
L 328.686545 96.919506 
L 330.309818 95.873491 
L 331.933091 95.176148 
L 335.179636 94.478805 
L 336.802909 94.362581 
L 338.426182 94.478805 
L 340.049455 94.362581 
L 343.296 94.362581 
L 344.919273 94.478805 
L 346.542545 94.478805 
L 348.165818 94.246357 
L 349.789091 93.897685 
L 351.412364 93.200342 
L 353.035636 92.154327 
L 356.282182 89.24873 
L 377.384727 65.190388 
L 385.501091 57.75206 
L 388.747636 55.892478 
L 391.994182 54.614015 
L 393.617455 54.265343 
L 398.487273 53.568 
L 398.487273 53.568 
" clip-path="url(#p6bdf7dd62f)" style="fill: none; stroke: #ff7f0e; stroke-width: 1.5; stroke-linecap: square"/>
   </g>
   <g id="patch_3">
    <path d="M 57.6 307.584 
L 57.6 41.472 
" style="fill: none; stroke: #000000; stroke-width: 0.8; stroke-linejoin: miter; stroke-linecap: square"/>
   </g>
   <g id="patch_4">
    <path d="M 414.72 307.584 
L 414.72 41.472 
" style="fill: none; stroke: #000000; stroke-width: 0.8; stroke-linejoin: miter; stroke-linecap: square"/>
   </g>
   <g id="patch_5">
    <path d="M 57.6 307.584 
L 414.72 307.584 
" style="fill: none; stroke: #000000; stroke-width: 0.8; stroke-linejoin: miter; stroke-linecap: square"/>
   </g>
   <g id="patch_6">
    <path d="M 57.6 41.472 
L 414.72 41.472 
" style="fill: none; stroke: #000000; stroke-width: 0.8; stroke-linejoin: miter; stroke-linecap: square"/>
   </g>
  </g>
 </g>
 <defs>
  <clipPath id="p6bdf7dd62f">
   <rect x="57.6" y="41.472" width="357.12" height="266.112"/>
  </clipPath>
 </defs>
</svg>
